<svg xmlns="http://www.w3.org/2000/svg" viewBox="0 0 60 32" width="22" height="12" aria-hidden="true">
  <rect width="60" height="32" fill="#B22234"/>
  <rect y="2.46" width="60" height="2.46" fill="#fff"/>
  <rect y="7.38" width="60" height="2.46" fill="#fff"/>
  <rect y="12.31" width="60" height="2.46" fill="#fff"/>
  <rect y="17.23" width="60" height="2.46" fill="#fff"/>
  <rect y="22.15" width="60" height="2.46" fill="#fff"/>
  <rect y="27.08" width="60" height="2.46" fill="#fff"/>
  <rect width="24" height="17.23" fill="#3C3B6E"/>
  <g fill="#fff">
    <circle cx="2.4" cy="1.72" r="0.7"/>
    <circle cx="6" cy="1.72" r="0.7"/>
    <circle cx="9.6" cy="1.72" r="0.7"/>
    <circle cx="13.2" cy="1.72" r="0.7"/>
    <circle cx="16.8" cy="1.72" r="0.7"/>
    <circle cx="20.4" cy="1.72" r="0.7"/>
    <circle cx="4.2" cy="3.45" r="0.7"/>
    <circle cx="7.8" cy="3.45" r="0.7"/>
    <circle cx="11.4" cy="3.45" r="0.7"/>
    <circle cx="15" cy="3.45" r="0.7"/>
    <circle cx="18.6" cy="3.45" r="0.7"/>
    <circle cx="2.4" cy="5.17" r="0.7"/>
    <circle cx="6" cy="5.17" r="0.7"/>
    <circle cx="9.6" cy="5.17" r="0.7"/>
    <circle cx="13.2" cy="5.17" r="0.7"/>
    <circle cx="16.8" cy="5.17" r="0.7"/>
    <circle cx="20.4" cy="5.17" r="0.7"/>
    <circle cx="4.2" cy="6.89" r="0.7"/>
    <circle cx="7.8" cy="6.89" r="0.7"/>
    <circle cx="11.4" cy="6.89" r="0.7"/>
    <circle cx="15" cy="6.89" r="0.7"/>
    <circle cx="18.6" cy="6.89" r="0.7"/>
    <circle cx="2.4" cy="8.62" r="0.7"/>
    <circle cx="6" cy="8.62" r="0.7"/>
    <circle cx="9.6" cy="8.62" r="0.7"/>
    <circle cx="13.2" cy="8.62" r="0.7"/>
    <circle cx="16.8" cy="8.62" r="0.7"/>
    <circle cx="20.4" cy="8.62" r="0.7"/>
    <circle cx="4.2" cy="10.34" r="0.7"/>
    <circle cx="7.8" cy="10.34" r="0.7"/>
    <circle cx="11.4" cy="10.34" r="0.7"/>
    <circle cx="15" cy="10.34" r="0.7"/>
    <circle cx="18.6" cy="10.34" r="0.7"/>
    <circle cx="2.4" cy="12.06" r="0.7"/>
    <circle cx="6" cy="12.06" r="0.7"/>
    <circle cx="9.6" cy="12.06" r="0.7"/>
    <circle cx="13.2" cy="12.06" r="0.7"/>
    <circle cx="16.8" cy="12.06" r="0.7"/>
    <circle cx="20.4" cy="12.06" r="0.7"/>
    <circle cx="4.2" cy="13.79" r="0.7"/>
    <circle cx="7.8" cy="13.79" r="0.7"/>
    <circle cx="11.4" cy="13.79" r="0.7"/>
    <circle cx="15" cy="13.79" r="0.7"/>
    <circle cx="18.6" cy="13.79" r="0.7"/>
    <circle cx="2.4" cy="15.51" r="0.7"/>
    <circle cx="6" cy="15.51" r="0.7"/>
    <circle cx="9.6" cy="15.51" r="0.7"/>
    <circle cx="13.2" cy="15.51" r="0.7"/>
    <circle cx="16.8" cy="15.51" r="0.7"/>
    <circle cx="20.4" cy="15.51" r="0.7"/>
  </g>
</svg>
